<svg width="570" height="348" viewBox="0 0 570 348" fill="none" xmlns="http://www.w3.org/2000/svg">
<path fill-rule="evenodd" clip-rule="evenodd" d="M237.5 54.3541C143.5 -28.1458 0 -21.6457 0 107.854C0 246.854 206 343.354 287 256.354L352 263.5L569.5 240.5L566 232.5L389.5 225L335 73L325.5 72L380.5 221.5L187.649 228.441C186.691 228.475 185.844 227.826 185.628 226.893L142.5 40.5L131.204 39.2897C129.862 39.146 128.767 40.3441 129.029 41.6673L140 97C129 100 123.048 108.535 116 120.5L32 90.5C32 29 102 2.35419 188 46.3542L237.5 54.3541ZM489.926 134.347H478.036V168.265H489.926V134.347ZM478.724 128.778C480.059 129.988 481.811 130.593 483.981 130.593C486.15 130.593 487.902 129.988 489.237 128.778C490.572 127.526 491.24 125.962 491.24 124.085C491.24 122.291 490.572 120.831 489.237 119.704C487.902 118.536 486.15 117.952 483.981 117.952C481.811 117.952 480.059 118.557 478.724 119.767C477.389 120.977 476.722 122.478 476.722 124.272C476.722 126.066 477.389 127.568 478.724 128.778ZM472.465 151.181C472.465 156.479 470.692 160.651 467.146 163.697C463.599 166.701 458.531 168.453 451.939 168.953V180.405H441.426V169.016C434.793 168.474 429.703 166.701 426.157 163.697C422.652 160.651 420.9 156.479 420.9 151.181C420.9 145.924 422.631 141.836 426.094 138.916C429.599 135.995 434.709 134.285 441.426 133.784V121.832H451.939V133.784C458.572 134.327 463.641 136.058 467.146 138.978C470.692 141.899 472.465 145.966 472.465 151.181ZM432.227 151.181C432.227 153.935 432.936 156.041 434.355 157.501C435.815 158.92 438.172 159.838 441.426 160.255V142.483C438.13 142.9 435.773 143.797 434.355 145.174C432.936 146.55 432.227 148.553 432.227 151.181ZM451.939 160.255C455.235 159.838 457.592 158.92 459.01 157.501C460.471 156.041 461.201 153.935 461.201 151.181C461.201 148.553 460.471 146.55 459.01 145.174C457.592 143.797 455.235 142.921 451.939 142.545V160.255ZM380.545 166.2C384.258 168.161 388.43 169.141 393.061 169.141C397.692 169.141 401.843 168.161 405.514 166.2C409.227 164.239 412.127 161.527 414.213 158.065C416.34 154.602 417.404 150.701 417.404 146.363C417.404 142.024 416.34 138.123 414.213 134.66C412.127 131.198 409.227 128.486 405.514 126.525C401.843 124.564 397.692 123.584 393.061 123.584C388.43 123.584 384.258 124.564 380.545 126.525C376.874 128.486 373.975 131.198 371.847 134.66C369.761 138.123 368.718 142.024 368.718 146.363C368.718 150.701 369.761 154.602 371.847 158.065C373.975 161.527 376.874 164.239 380.545 166.2ZM399.069 157.314C397.275 158.357 395.272 158.878 393.061 158.878C390.85 158.878 388.847 158.357 387.053 157.314C385.26 156.271 383.841 154.811 382.798 152.933C381.755 151.014 381.234 148.824 381.234 146.363C381.234 143.901 381.755 141.732 382.798 139.854C383.841 137.935 385.26 136.454 387.053 135.411C388.847 134.368 390.85 133.847 393.061 133.847C395.272 133.847 397.275 134.368 399.069 135.411C400.862 136.454 402.281 137.935 403.324 139.854C404.367 141.732 404.888 143.901 404.888 146.363C404.888 148.824 404.367 151.014 403.324 152.933C402.281 154.811 400.862 156.271 399.069 157.314ZM199.29 159.754L195.848 168.265H183.207L202.544 124.46H214.747L234.146 168.265H221.255L217.813 159.754H199.29ZM214.183 150.618L208.551 136.6L202.919 150.618H214.183ZM265.824 150.493C269.704 151.786 271.644 154.456 271.644 158.503C271.644 161.548 270.455 163.947 268.077 165.699C265.699 167.41 262.195 168.265 257.564 168.265H238.478V134.347H256.688C261.11 134.347 264.531 135.119 266.951 136.663C269.412 138.206 270.643 140.376 270.643 143.171C270.643 144.798 270.226 146.237 269.391 147.489C268.557 148.74 267.368 149.742 265.824 150.493ZM249.116 147.99H255.624C258.378 147.99 259.754 146.967 259.754 144.923C259.754 142.962 258.378 141.982 255.624 141.982H249.116V147.99ZM256.5 160.568C259.379 160.568 260.818 159.525 260.818 157.439C260.818 155.353 259.421 154.31 256.625 154.31H249.116V160.568H256.5ZM297.05 143.797H307.938V134.347H274.271V143.797H285.222V168.265H297.05V143.797ZM327.909 168.828C324.28 168.828 321.005 168.077 318.084 166.575C315.164 165.073 312.869 162.988 311.201 160.318C309.574 157.647 308.76 154.623 308.76 151.244C308.76 147.906 309.574 144.902 311.201 142.232C312.869 139.562 315.143 137.497 318.022 136.037C320.942 134.535 324.238 133.784 327.909 133.784C331.58 133.784 334.876 134.535 337.796 136.037C340.717 137.497 342.99 139.562 344.617 142.232C346.245 144.861 347.058 147.864 347.058 151.244C347.058 154.623 346.245 157.647 344.617 160.318C342.99 162.988 340.717 165.073 337.796 166.575C334.876 168.077 331.58 168.828 327.909 168.828ZM327.909 159.379C329.995 159.379 331.705 158.67 333.04 157.251C334.375 155.791 335.043 153.788 335.043 151.244C335.043 148.74 334.375 146.78 333.04 145.361C331.705 143.943 329.995 143.234 327.909 143.234C325.823 143.234 324.113 143.943 322.778 145.361C321.443 146.78 320.775 148.74 320.775 151.244C320.775 153.788 321.443 155.791 322.778 157.251C324.113 158.67 325.823 159.379 327.909 159.379ZM514.979 168.828C511.225 168.828 507.866 168.077 504.904 166.575C501.942 165.073 499.627 162.988 497.958 160.318C496.331 157.647 495.518 154.623 495.518 151.244C495.518 147.864 496.331 144.861 497.958 142.232C499.627 139.562 501.942 137.497 504.904 136.037C507.866 134.535 511.225 133.784 514.979 133.784C518.818 133.784 522.134 134.619 524.93 136.287C527.725 137.914 529.706 140.188 530.874 143.108L521.675 147.802C520.132 144.756 517.879 143.234 514.917 143.234C512.789 143.234 511.016 143.943 509.598 145.361C508.221 146.78 507.533 148.74 507.533 151.244C507.533 153.788 508.221 155.791 509.598 157.251C511.016 158.67 512.789 159.379 514.917 159.379C517.879 159.379 520.132 157.856 521.675 154.811L530.874 159.504C529.706 162.424 527.725 164.719 524.93 166.388C522.134 168.015 518.818 168.828 514.979 168.828ZM34.1395 122.533L116.52 141.406C124.935 166.899 135.91 175.842 161.155 186.94L172.332 238.736C172.991 241.79 175.541 244.073 178.649 244.393L249.228 251.646C223.315 262.508 199.5 263.329 174.336 257.337C149.173 251.346 136.085 243.633 113.225 229.777C92.5337 215.647 81.9351 205.465 64.3956 184.243C48.3536 161.677 41.737 148.163 34.1395 122.533Z" fill="#303030"/>
<path d="M61.6627 333.587C63.1285 333.905 64.2508 334.423 65.0296 335.142C65.8083 335.861 66.1977 336.748 66.1977 337.801C66.1977 339.357 65.3846 340.569 63.7584 341.439C62.1551 342.309 59.8533 342.744 56.8528 342.744H45V325.183H56.2001C58.9944 325.183 61.1703 325.576 62.7277 326.362C64.2852 327.148 65.0639 328.268 65.0639 329.723C65.0639 330.593 64.7662 331.362 64.1707 332.031C63.5752 332.684 62.7392 333.202 61.6627 333.587ZM50.5313 332.458H55.7191C56.933 332.458 57.8492 332.282 58.4676 331.931C59.086 331.563 59.3952 331.028 59.3952 330.325C59.3952 329.64 59.0745 329.113 58.4332 328.745C57.8148 328.377 56.9101 328.193 55.7191 328.193H50.5313V332.458ZM56.6467 339.733C59.2578 339.733 60.5633 338.98 60.5633 337.475C60.5633 336.02 59.2578 335.293 56.6467 335.293H50.5313V339.733H56.6467Z" fill="#303030"/>
<path d="M70.1527 329.247H75.5122V342.744H70.1527V329.247ZM72.8324 327.365C71.8476 327.365 71.0459 327.156 70.4275 326.738C69.8091 326.32 69.4999 325.801 69.4999 325.183C69.4999 324.564 69.8091 324.045 70.4275 323.627C71.0459 323.209 71.8476 323 72.8324 323C73.8173 323 74.6189 323.201 75.2374 323.602C75.8558 324.003 76.165 324.505 76.165 325.107C76.165 325.76 75.8558 326.303 75.2374 326.738C74.6189 327.156 73.8173 327.365 72.8324 327.365Z" fill="#303030"/>
<path d="M92.4774 335.719C93.5768 335.97 94.4242 336.355 95.0197 336.873C95.6381 337.392 95.9473 338.01 95.9473 338.73C95.9473 339.583 95.5465 340.335 94.7449 340.987C93.9432 341.623 92.8438 342.116 91.4467 342.468C90.0496 342.819 88.4692 342.994 86.7056 342.994C85.2626 342.994 83.8426 342.886 82.4454 342.668C81.0483 342.451 79.7542 342.125 78.5632 341.69L80.0061 338.955C81.953 339.641 84.106 339.984 86.4651 339.984C87.7248 339.984 88.7097 339.85 89.4197 339.583C90.1526 339.298 90.5191 338.905 90.5191 338.403C90.5191 337.969 90.2671 337.643 89.7633 337.425C89.2594 337.191 88.5264 337.074 87.5645 337.074H83.7853V334.64H87.0835C88.0225 334.64 88.744 334.532 89.2479 334.314C89.7518 334.097 90.0037 333.779 90.0037 333.361C90.0037 332.926 89.6831 332.592 89.0418 332.357C88.4234 332.123 87.5301 332.006 86.362 332.006C84.5755 332.006 82.6286 332.316 80.5215 332.934L79.216 330.225C81.7812 329.406 84.2777 328.996 86.7056 328.996C88.3776 328.996 89.8663 329.146 91.1719 329.447C92.5003 329.748 93.5424 330.192 94.2983 330.777C95.0541 331.346 95.432 332.015 95.432 332.784C95.432 333.42 95.1686 333.997 94.6418 334.515C94.115 335.017 93.3935 335.418 92.4774 335.719Z" fill="#303030"/>
<path d="M109.844 333.562C112.248 333.578 114.092 333.98 115.375 334.766C116.658 335.535 117.299 336.631 117.299 338.052C117.299 339.541 116.577 340.703 115.134 341.539C113.714 342.359 111.71 342.769 109.122 342.769L99.846 342.744V329.247H105.171V333.562H109.844ZM108.641 339.984C109.672 340.001 110.462 339.842 111.012 339.507C111.561 339.173 111.836 338.671 111.836 338.002C111.836 337.35 111.561 336.873 111.012 336.572C110.485 336.271 109.695 336.112 108.641 336.095L105.171 336.07V339.984H108.641Z" fill="#303030"/>
<path d="M138.684 342.744V334.665L133.153 341.439H130.886L125.492 334.64V342.744H120.647V329.247H126.248L132.157 337.049L138.444 329.247H143.46L143.529 342.744H138.684Z" fill="#303030"/>
<path d="M148.662 329.247H153.988V337.275L162.989 329.247H167.902V342.744H162.577V334.716L153.61 342.744H148.662V329.247Z" fill="#303030"/>
<path d="M192.506 335.669H188.658V342.744H183.127V325.183H188.658V332.282H192.644L198.965 325.183H204.84L196.973 333.662L205.081 342.744H198.759L192.506 335.669Z" fill="#303030"/>
<path d="M215.665 342.944C213.718 342.944 211.966 342.652 210.409 342.066C208.874 341.464 207.672 340.636 206.801 339.583C205.931 338.529 205.496 337.333 205.496 335.995C205.496 334.657 205.931 333.461 206.801 332.408C207.672 331.354 208.874 330.534 210.409 329.949C211.966 329.347 213.718 329.046 215.665 329.046C217.612 329.046 219.353 329.347 220.887 329.949C222.422 330.534 223.624 331.354 224.495 332.408C225.365 333.461 225.8 334.657 225.8 335.995C225.8 337.333 225.365 338.529 224.495 339.583C223.624 340.636 222.422 341.464 220.887 342.066C219.353 342.652 217.612 342.944 215.665 342.944ZM215.665 339.733C217.039 339.733 218.162 339.399 219.032 338.73C219.925 338.044 220.372 337.132 220.372 335.995C220.372 334.858 219.925 333.955 219.032 333.286C218.162 332.6 217.039 332.257 215.665 332.257C214.291 332.257 213.157 332.6 212.264 333.286C211.371 333.955 210.924 334.858 210.924 335.995C210.924 337.132 211.371 338.044 212.264 338.73C213.157 339.399 214.291 339.733 215.665 339.733Z" fill="#303030"/>
<path d="M247.523 342.744V334.665L241.992 341.439H239.724L234.331 334.64V342.744H229.486V329.247H235.086L240.996 337.049L247.283 329.247H252.299L252.368 342.744H247.523Z" fill="#303030"/>
<path d="M283.028 335.945C283.028 338.036 282.066 339.691 280.142 340.912C278.241 342.116 275.515 342.81 271.965 342.994V347.61H267.052V342.994C263.502 342.81 260.765 342.125 258.841 340.937C256.94 339.733 255.99 338.069 255.99 335.945C255.99 333.854 256.929 332.232 258.807 331.078C260.708 329.924 263.456 329.255 267.052 329.071V324.129H271.965V329.071C275.515 329.255 278.241 329.932 280.142 331.103C282.066 332.274 283.028 333.888 283.028 335.945ZM261.177 335.945C261.177 337.149 261.647 338.077 262.586 338.73C263.525 339.382 265.014 339.792 267.052 339.959V332.107C265.014 332.257 263.525 332.65 262.586 333.286C261.647 333.905 261.177 334.791 261.177 335.945ZM271.965 339.959C274.004 339.792 275.492 339.382 276.432 338.73C277.393 338.077 277.874 337.149 277.874 335.945C277.874 334.791 277.393 333.905 276.432 333.286C275.492 332.65 274.004 332.257 271.965 332.107V339.959Z" fill="#303030"/>
<path d="M295.315 342.944C293.368 342.944 291.616 342.652 290.058 342.066C288.524 341.464 287.321 340.636 286.451 339.583C285.581 338.529 285.145 337.333 285.145 335.995C285.145 334.657 285.581 333.461 286.451 332.408C287.321 331.354 288.524 330.534 290.058 329.949C291.616 329.347 293.368 329.046 295.315 329.046C297.262 329.046 299.002 329.347 300.537 329.949C302.071 330.534 303.274 331.354 304.144 332.408C305.015 333.461 305.45 334.657 305.45 335.995C305.45 337.333 305.015 338.529 304.144 339.583C303.274 340.636 302.071 341.464 300.537 342.066C299.002 342.652 297.262 342.944 295.315 342.944ZM295.315 339.733C296.689 339.733 297.811 339.399 298.682 338.73C299.575 338.044 300.021 337.132 300.021 335.995C300.021 334.858 299.575 333.955 298.682 333.286C297.811 332.6 296.689 332.257 295.315 332.257C293.94 332.257 292.807 332.6 291.913 333.286C291.02 333.955 290.574 334.858 290.574 335.995C290.574 337.132 291.02 338.044 291.913 338.73C292.807 339.399 293.94 339.733 295.315 339.733Z" fill="#303030"/>
<path d="M320.027 329.046C321.745 329.046 323.302 329.339 324.699 329.924C326.119 330.493 327.23 331.304 328.032 332.357C328.834 333.394 329.234 334.607 329.234 335.995C329.234 337.383 328.834 338.604 328.032 339.658C327.23 340.695 326.119 341.506 324.699 342.091C323.302 342.66 321.745 342.944 320.027 342.944C317.668 342.944 315.813 342.401 314.461 341.314V347.61H309.102V329.247H314.221V330.802C315.549 329.631 317.485 329.046 320.027 329.046ZM319.099 339.733C320.474 339.733 321.596 339.399 322.466 338.73C323.359 338.044 323.806 337.132 323.806 335.995C323.806 334.858 323.359 333.955 322.466 333.286C321.596 332.6 320.474 332.257 319.099 332.257C317.725 332.257 316.591 332.6 315.698 333.286C314.828 333.955 314.393 334.858 314.393 335.995C314.393 337.132 314.828 338.044 315.698 338.73C316.591 339.399 317.725 339.733 319.099 339.733Z" fill="#303030"/>
<path d="M347.849 332.458H341.596V342.744H336.271V332.458H330.018V329.247H347.849V332.458Z" fill="#303030"/>
<path d="M374.556 335.694C376.732 336.229 377.819 337.3 377.819 338.905C377.819 340.126 377.19 341.071 375.93 341.74C374.67 342.409 372.792 342.744 370.295 342.744H360.435V329.247H369.883C372.196 329.247 374.006 329.556 375.311 330.175C376.617 330.777 377.27 331.63 377.27 332.734C377.27 333.403 377.029 333.997 376.548 334.515C376.09 335.017 375.426 335.41 374.556 335.694ZM365.348 334.791H369.402C371.28 334.791 372.219 334.306 372.219 333.336C372.219 332.383 371.28 331.906 369.402 331.906H365.348V334.791ZM369.849 340.084C371.819 340.084 372.803 339.591 372.803 338.604C372.803 338.086 372.574 337.709 372.116 337.475C371.658 337.224 370.937 337.099 369.952 337.099H365.348V340.084H369.849Z" fill="#303030"/>
<path d="M416.754 339.432V346.381H411.601V342.744H394.629V346.381H389.476L389.51 339.432H390.472C391.915 339.399 392.934 338.629 393.53 337.124C394.125 335.619 394.492 333.47 394.629 330.677L394.904 325.183H413.387V339.432H416.754ZM399.542 331.053C399.427 333.144 399.187 334.9 398.82 336.321C398.454 337.726 397.893 338.763 397.137 339.432H407.89V328.494H399.645L399.542 331.053Z" fill="#303030"/>
<path d="M428.512 342.944C426.565 342.944 424.813 342.652 423.255 342.066C421.72 341.464 420.518 340.636 419.648 339.583C418.777 338.529 418.342 337.333 418.342 335.995C418.342 334.657 418.777 333.461 419.648 332.408C420.518 331.354 421.72 330.534 423.255 329.949C424.813 329.347 426.565 329.046 428.512 329.046C430.458 329.046 432.199 329.347 433.734 329.949C435.268 330.534 436.471 331.354 437.341 332.408C438.211 333.461 438.647 334.657 438.647 335.995C438.647 337.333 438.211 338.529 437.341 339.583C436.471 340.636 435.268 341.464 433.734 342.066C432.199 342.652 430.458 342.944 428.512 342.944ZM428.512 339.733C429.886 339.733 431.008 339.399 431.878 338.73C432.772 338.044 433.218 337.132 433.218 335.995C433.218 334.858 432.772 333.955 431.878 333.286C431.008 332.6 429.886 332.257 428.512 332.257C427.137 332.257 426.004 332.6 425.11 333.286C424.217 333.955 423.77 334.858 423.77 335.995C423.77 337.132 424.217 338.044 425.11 338.73C426.004 339.399 427.137 339.733 428.512 339.733Z" fill="#303030"/>
<path d="M453.224 329.046C454.942 329.046 456.499 329.339 457.896 329.924C459.316 330.493 460.427 331.304 461.229 332.357C462.03 333.394 462.431 334.607 462.431 335.995C462.431 337.383 462.03 338.604 461.229 339.658C460.427 340.695 459.316 341.506 457.896 342.091C456.499 342.66 454.942 342.944 453.224 342.944C450.865 342.944 449.009 342.401 447.658 341.314V347.61H442.299V329.247H447.418V330.802C448.746 329.631 450.681 329.046 453.224 329.046ZM452.296 339.733C453.67 339.733 454.793 339.399 455.663 338.73C456.556 338.044 457.003 337.132 457.003 335.995C457.003 334.858 456.556 333.955 455.663 333.286C454.793 332.6 453.67 332.257 452.296 332.257C450.922 332.257 449.788 332.6 448.895 333.286C448.025 333.955 447.589 334.858 447.589 335.995C447.589 337.132 448.025 338.044 448.895 338.73C449.788 339.399 450.922 339.733 452.296 339.733Z" fill="#303030"/>
<path d="M474.845 342.944C472.898 342.944 471.146 342.652 469.589 342.066C468.054 341.464 466.852 340.636 465.981 339.583C465.111 338.529 464.676 337.333 464.676 335.995C464.676 334.657 465.111 333.461 465.981 332.408C466.852 331.354 468.054 330.534 469.589 329.949C471.146 329.347 472.898 329.046 474.845 329.046C476.792 329.046 478.533 329.347 480.067 329.949C481.602 330.534 482.804 331.354 483.675 332.408C484.545 333.461 484.98 334.657 484.98 335.995C484.98 337.333 484.545 338.529 483.675 339.583C482.804 340.636 481.602 341.464 480.067 342.066C478.533 342.652 476.792 342.944 474.845 342.944ZM474.845 339.733C476.219 339.733 477.342 339.399 478.212 338.73C479.105 338.044 479.552 337.132 479.552 335.995C479.552 334.858 479.105 333.955 478.212 333.286C477.342 332.6 476.219 332.257 474.845 332.257C473.471 332.257 472.337 332.6 471.444 333.286C470.551 333.955 470.104 334.858 470.104 335.995C470.104 337.132 470.551 338.044 471.444 338.73C472.337 339.399 473.471 339.733 474.845 339.733Z" fill="#303030"/>
<path d="M503.474 332.458H493.992V342.744H488.667V329.247H503.474V332.458Z" fill="#303030"/>
<path d="M525 329.247L516.651 343.571C515.804 345.127 514.75 346.222 513.491 346.858C512.254 347.493 510.754 347.811 508.99 347.811C508.028 347.811 507.078 347.702 506.139 347.485C505.199 347.268 504.432 346.967 503.837 346.582L505.795 343.797C506.207 344.065 506.677 344.274 507.204 344.424C507.753 344.575 508.291 344.65 508.818 344.65C509.551 344.65 510.147 344.516 510.605 344.249C511.063 343.998 511.475 343.571 511.842 342.969L511.91 342.844L503.905 329.247H509.437L514.624 338.403L519.847 329.247H525Z" fill="#303030"/>
</svg>
