<svg width="1024" height="521" viewBox="0 0 1024 521" fill="none" xmlns="http://www.w3.org/2000/svg">
<path fill-rule="evenodd" clip-rule="evenodd" d="M427.041 98.1886C258.023 -50.1519 0 -38.4642 0 194.385C0 444.317 370.402 617.831 516.045 461.398L632.92 474.247L1024 432.892L1017.71 418.507L700.348 405.022L602.353 131.715L585.271 129.917L684.165 398.728L337.405 411.208C335.684 411.27 334.16 410.103 333.772 408.425L256.225 73.2779L235.913 71.1017C233.502 70.8433 231.531 72.9976 232.003 75.3768L251.73 174.869C231.951 180.263 221.249 195.61 208.576 217.123L57.5382 163.181C57.5382 52.6002 183.403 4.68917 338.037 83.8042L427.041 98.1886ZM209.511 254.713L61.3852 220.779C75.046 266.862 86.9432 291.163 115.788 331.738C147.325 369.896 166.382 388.205 203.586 413.612C244.691 438.525 268.223 452.394 313.468 463.166C358.714 473.939 401.535 472.464 448.128 452.932L321.223 439.891C315.635 439.316 311.051 435.211 309.866 429.72L289.768 336.586C244.376 316.631 224.642 300.552 209.511 254.713Z" fill="#303030" fill-opacity="0.06"/>
</svg>
