<svg width="570" height="290" viewBox="0 0 570 290" fill="none" xmlns="http://www.w3.org/2000/svg">
<path fill-rule="evenodd" clip-rule="evenodd" d="M237.5 54.3541C143.5 -28.1458 0 -21.6457 0 107.854C0 246.854 206 343.354 287 256.354L352 263.5L569.5 240.5L566 232.5L389.5 225L335 73L325.5 72L380.5 221.5L187.649 228.441C186.691 228.475 185.844 227.826 185.628 226.893L142.5 40.5L131.204 39.2897C129.862 39.146 128.767 40.3441 129.029 41.6673L140 97C129 100 123.048 108.535 116 120.5L32 90.5C32 29 102 2.35418 188 46.3542L237.5 54.3541ZM489.926 134.347H478.036V168.265H489.926V134.347ZM478.724 128.778C480.059 129.988 481.811 130.593 483.981 130.593C486.15 130.593 487.902 129.988 489.237 128.778C490.572 127.526 491.24 125.962 491.24 124.085C491.24 122.291 490.572 120.831 489.237 119.704C487.902 118.536 486.15 117.952 483.981 117.952C481.811 117.952 480.059 118.557 478.724 119.767C477.389 120.977 476.722 122.478 476.722 124.272C476.722 126.066 477.389 127.568 478.724 128.778ZM472.465 151.181C472.465 156.479 470.692 160.651 467.146 163.697C463.599 166.701 458.531 168.453 451.939 168.953V180.405H441.426V169.016C434.793 168.474 429.703 166.701 426.157 163.697C422.652 160.651 420.9 156.479 420.9 151.181C420.9 145.924 422.631 141.836 426.094 138.916C429.599 135.995 434.709 134.285 441.426 133.784V121.832H451.939V133.784C458.572 134.327 463.641 136.058 467.146 138.978C470.692 141.899 472.465 145.966 472.465 151.181ZM432.227 151.181C432.227 153.935 432.936 156.041 434.355 157.501C435.815 158.92 438.172 159.838 441.426 160.255V142.483C438.13 142.9 435.773 143.797 434.355 145.174C432.936 146.55 432.227 148.553 432.227 151.181ZM451.939 160.255C455.235 159.838 457.592 158.92 459.01 157.501C460.471 156.041 461.201 153.935 461.201 151.181C461.201 148.553 460.471 146.55 459.01 145.174C457.592 143.797 455.235 142.921 451.939 142.545V160.255ZM380.545 166.2C384.258 168.161 388.43 169.141 393.061 169.141C397.692 169.141 401.843 168.161 405.514 166.2C409.227 164.239 412.127 161.527 414.213 158.065C416.34 154.602 417.404 150.701 417.404 146.363C417.404 142.024 416.34 138.123 414.213 134.66C412.127 131.198 409.227 128.486 405.514 126.525C401.843 124.564 397.692 123.584 393.061 123.584C388.43 123.584 384.258 124.564 380.545 126.525C376.874 128.486 373.975 131.198 371.847 134.66C369.761 138.123 368.718 142.024 368.718 146.363C368.718 150.701 369.761 154.602 371.847 158.065C373.975 161.527 376.874 164.239 380.545 166.2ZM399.069 157.314C397.275 158.357 395.272 158.878 393.061 158.878C390.85 158.878 388.847 158.357 387.053 157.314C385.26 156.271 383.841 154.811 382.798 152.933C381.755 151.014 381.234 148.824 381.234 146.363C381.234 143.901 381.755 141.732 382.798 139.854C383.841 137.935 385.26 136.454 387.053 135.411C388.847 134.368 390.85 133.847 393.061 133.847C395.272 133.847 397.275 134.368 399.069 135.411C400.862 136.454 402.281 137.935 403.324 139.854C404.367 141.732 404.888 143.901 404.888 146.363C404.888 148.824 404.367 151.014 403.324 152.933C402.281 154.811 400.862 156.271 399.069 157.314ZM199.29 159.754L195.848 168.265H183.207L202.544 124.46H214.747L234.146 168.265H221.255L217.813 159.754H199.29ZM214.183 150.618L208.551 136.6L202.919 150.618H214.183ZM265.824 150.493C269.704 151.786 271.644 154.456 271.644 158.503C271.644 161.548 270.455 163.947 268.077 165.699C265.699 167.41 262.195 168.265 257.564 168.265H238.478V134.347H256.688C261.11 134.347 264.531 135.119 266.951 136.663C269.412 138.206 270.643 140.376 270.643 143.171C270.643 144.798 270.226 146.237 269.391 147.489C268.557 148.74 267.368 149.742 265.824 150.493ZM249.116 147.99H255.624C258.378 147.99 259.754 146.967 259.754 144.923C259.754 142.962 258.378 141.982 255.624 141.982H249.116V147.99ZM256.5 160.568C259.379 160.568 260.818 159.525 260.818 157.439C260.818 155.353 259.421 154.31 256.625 154.31H249.116V160.568H256.5ZM297.05 143.797H307.938V134.347H274.271V143.797H285.222V168.265H297.05V143.797ZM327.909 168.828C324.28 168.828 321.005 168.077 318.084 166.575C315.164 165.073 312.869 162.988 311.201 160.318C309.574 157.647 308.76 154.623 308.76 151.244C308.76 147.906 309.574 144.902 311.201 142.232C312.869 139.562 315.143 137.497 318.022 136.037C320.942 134.535 324.238 133.784 327.909 133.784C331.58 133.784 334.876 134.535 337.796 136.037C340.717 137.497 342.99 139.562 344.617 142.232C346.245 144.861 347.058 147.864 347.058 151.244C347.058 154.623 346.245 157.647 344.617 160.318C342.99 162.988 340.717 165.073 337.796 166.575C334.876 168.077 331.58 168.828 327.909 168.828ZM327.909 159.379C329.995 159.379 331.705 158.67 333.04 157.251C334.375 155.791 335.043 153.788 335.043 151.244C335.043 148.74 334.375 146.78 333.04 145.361C331.705 143.943 329.995 143.234 327.909 143.234C325.823 143.234 324.113 143.943 322.778 145.361C321.443 146.78 320.775 148.74 320.775 151.244C320.775 153.788 321.443 155.791 322.778 157.251C324.113 158.67 325.823 159.379 327.909 159.379ZM514.979 168.828C511.225 168.828 507.866 168.077 504.904 166.575C501.942 165.073 499.627 162.988 497.958 160.318C496.331 157.647 495.518 154.623 495.518 151.244C495.518 147.864 496.331 144.861 497.958 142.232C499.627 139.562 501.942 137.497 504.904 136.037C507.866 134.535 511.225 133.784 514.979 133.784C518.818 133.784 522.134 134.619 524.93 136.287C527.725 137.914 529.706 140.188 530.874 143.108L521.675 147.802C520.132 144.756 517.879 143.234 514.917 143.234C512.789 143.234 511.016 143.943 509.598 145.361C508.221 146.78 507.533 148.74 507.533 151.244C507.533 153.788 508.221 155.791 509.598 157.251C511.016 158.67 512.789 159.379 514.917 159.379C517.879 159.379 520.132 157.856 521.675 154.811L530.874 159.504C529.706 162.424 527.725 164.719 524.93 166.388C522.134 168.015 518.818 168.828 514.979 168.828ZM34.1395 122.533L116.52 141.406C124.935 166.899 135.91 175.842 161.155 186.94L172.332 238.736C172.991 241.79 175.541 244.073 178.649 244.393L249.228 251.646C223.315 262.508 199.5 263.329 174.336 257.337C149.173 251.346 136.085 243.633 113.225 229.777C92.5337 215.647 81.9351 205.465 64.3956 184.243C48.3536 161.677 41.737 148.163 34.1395 122.533Z" fill="#303030"/>
</svg>
